<?xml version="1.0"?><!DOCTYPE svg  PUBLIC '-//W3C//DTD SVG 1.1//EN'  'http://www.w3.org/Graphics/SVG/1.1/DTD/svg11.dtd'><svg enable-background="new 0 0 24 24" height="24px" id="Layer_1" version="1.1" viewBox="0 0 24 24" width="24px" xml:space="preserve" xmlns="http://www.w3.org/2000/svg" xmlns:xlink="http://www.w3.org/1999/xlink"><path fill="white" d="M12,0C5.4,0,0,5,0,12h2h9v9c0,0.6-0.4,1-1,1s-1-0.4-1-1s-0.4-1-1-1s-1,0.4-1,1c0,1.7,1.3,3,3,3c1.7,0,3-1.3,3-3v-9h9h2  C24,5,18.6,0,12,0z M2.2,10C2.9,7,5.1,4.1,8,2.8C6.2,4.6,5,7,5,10H2.2z M6,10c0-4,1.9-6.4,4.7-7.9c0,0,0.1,0,0.1,0C9.7,4.5,9,7,9,10  H6z M10,10c0-3,0.7-5.6,2-8c1.3,2.4,2,5,2,8H10z M15,10c0-3-0.7-5.5-1.8-7.9c0,0,0.1,0,0.1,0C16.1,3.6,18,6,18,10H15z M19,10  c0-3-1.2-5.4-3-7.2c3,1.3,5.2,4.2,5.8,7.2H19z"/></svg>