<?xml version="1.0"?><!DOCTYPE svg  PUBLIC '-//W3C//DTD SVG 1.1//EN'  'http://www.w3.org/Graphics/SVG/1.1/DTD/svg11.dtd'><svg enable-background="new 0 0 24 24" height="24px" id="Layer_1" version="1.1" viewBox="0 0 24 24" width="24px" xml:space="preserve" xmlns="http://www.w3.org/2000/svg" xmlns:xlink="http://www.w3.org/1999/xlink"><g><path fill="white" d="M12,5C5.4,5,0,10.4,0,17h2C2,11.5,6.5,7,12,7s10,4.5,10,10h2C24,10.4,18.6,5,12,5z"/><path fill="white" d="M11.9,7.9c-5,0-9.1,4.1-9.1,9.1H4c0-4.4,3.6-8,8-8s8,3.6,8,8h1C21,12,16.9,7.9,11.9,7.9z"/><path fill="white" d="M12,10c-3.9,0-7,3.1-7,7h1c0-3.3,2.7-6,6-6s6,2.7,6,6h1C19,13.1,15.9,10,12,10z"/><path fill="white" d="M11.9,11.9c-2.8,0-5.1,2.3-5.1,5.1H9c0-1.7,1.3-3,3-3s3,1.3,3,3h2C17,14.2,14.7,11.9,11.9,11.9z"/></g></svg>