<?xml version="1.0" encoding="UTF-8"?>
<svg version="1.1" xmlns="http://www.w3.org/2000/svg" width="980" height="980">
<path d="M0 0 C323.4 0 646.8 0 980 0 C980 323.4 980 646.8 980 980 C656.6 980 333.2 980 0 980 C0 656.6 0 333.2 0 0 Z " fill="#FEFEFE" transform="translate(0,0)"/>
<path d="M0 0 C5.60140477 4.55318867 9.0979548 10.66338662 12.69140625 16.81640625 C13.64744965 18.42636827 14.60457476 20.03568821 15.5625 21.64453125 C18.95666718 27.35801131 22.32492124 33.08658559 25.69140625 38.81640625 C32.92490289 51.12350206 40.22724509 63.38136316 47.67163086 75.56225586 C51.46704493 81.78029718 55.19191056 88.03400982 58.86401367 94.32543945 C62.40132034 100.36651282 66.04176961 106.34267865 69.69140625 112.31640625 C74.1232314 119.57213813 78.50656383 126.85028268 82.79736328 134.19018555 C86.5089102 140.53005865 90.28401365 146.83108966 94.06640625 153.12890625 C94.70707031 154.19584717 95.34773438 155.26278809 96.0078125 156.36206055 C99.01464584 161.36723593 102.0247662 166.37040955 105.0390625 171.37109375 C109.55410979 178.86652053 114.06100766 186.36624356 118.44140625 193.94140625 C119.075625 195.03710938 119.70984375 196.1328125 120.36328125 197.26171875 C121.69140625 199.81640625 121.69140625 199.81640625 121.69140625 201.81640625 C122.35140625 201.81640625 123.01140625 201.81640625 123.69140625 201.81640625 C123.9853125 202.3784375 124.27921875 202.94046875 124.58203125 203.51953125 C129.42746073 212.5977497 134.77415395 221.36653107 140.09472656 230.17138672 C142.63589896 234.38102918 145.16318935 238.59897513 147.69140625 242.81640625 C148.69133438 244.48311604 149.69133451 246.14978263 150.69140625 247.81640625 C156.69140625 257.81640625 156.69140625 257.81640625 158.19116211 260.31616211 C159.19178446 261.98375747 160.19259845 263.65123786 161.19360352 265.31860352 C163.68566121 269.47014232 166.17441836 273.62358876 168.65625 277.78125 C173.88370934 286.52947107 179.17586934 295.23006533 184.56640625 303.87890625 C188.27179022 309.82768595 191.86095553 315.77504377 195.1171875 321.984375 C196.83073417 325.06705821 198.68700362 328.03331668 200.56347656 331.01855469 C206.38649912 340.3077561 211.27097372 349.79882666 215.77050781 359.79101562 C216.54936828 361.50401309 217.36274142 363.20125472 218.18359375 364.89453125 C223.42953749 375.77742074 228.74910219 388.5471538 226.69140625 400.81640625 C224.39511166 405.76227151 221.3781676 408.12401143 216.69140625 410.81640625 C211.65365766 412.49565578 206.54534884 412.69530207 201.43359375 411.12109375 C194.70906575 407.66933984 192.94666746 401.66077041 190.69140625 394.81640625 C190.35238281 393.72457031 190.01335937 392.63273437 189.6640625 391.5078125 C183.83383736 372.89673794 174.68611937 356.18312069 164.04003906 339.92529297 C162.03381143 336.78811081 160.19537212 333.56609648 158.37890625 330.31640625 C156.08854882 326.23626436 153.73257044 322.2452174 151.19140625 318.31640625 C147.88905959 313.20598744 144.88311345 307.95428183 141.89135742 302.65942383 C139.82065251 299.02117217 137.67938988 295.42726633 135.515625 291.84375 C132.35368613 286.59019287 129.20575303 281.32874727 126.078125 276.0546875 C125.69610931 275.41056412 125.31409363 274.76644073 124.92050171 274.10279846 C124.13943498 272.78553595 123.35846034 271.46821884 122.57757568 270.15084839 C115.39445863 258.03420752 108.18595901 245.93345957 100.92333984 233.86425781 C99.07242448 230.78746866 97.22569572 227.70817298 95.37890625 224.62890625 C94.66408705 223.43748527 93.9492421 222.24607974 93.234375 221.0546875 C49.04296875 147.40234375 49.04296875 147.40234375 47.89428711 145.48779297 C47.18425943 144.30446712 46.47413808 143.12119747 45.76391602 141.93798828 C43.9835704 138.97173069 42.20526092 136.00427179 40.4296875 133.03515625 C39.66290479 131.75381984 38.89597757 130.4725699 38.12890625 129.19140625 C37.56200073 128.24454956 37.56200073 128.24454956 36.98364258 127.27856445 C34.69060549 123.45716679 32.35919212 119.66239739 30.00390625 115.87890625 C25.50457261 108.59898442 21.22208207 101.19418695 16.92651367 93.79272461 C13.08716035 87.18325107 9.20399592 80.60497213 5.17993164 74.10595703 C2.69140625 70.03185973 2.69140625 70.03185973 2.69140625 67.81640625 C2.03140625 67.81640625 1.37140625 67.81640625 0.69140625 67.81640625 C-0.64698108 65.3607045 -1.97945607 62.90210709 -3.30859375 60.44140625 C-3.8809375 59.39339844 -3.8809375 59.39339844 -4.46484375 58.32421875 C-7.30859375 53.04296875 -7.30859375 53.04296875 -7.30859375 50.81640625 C-8.29859375 50.81640625 -9.28859375 50.81640625 -10.30859375 50.81640625 C-10.57671875 51.70328125 -10.84484375 52.59015625 -11.12109375 53.50390625 C-12.25811841 56.6756066 -13.54377857 58.956322 -15.30859375 61.81640625 C-16.18917292 63.28415387 -17.06788487 64.75302245 -17.9453125 66.22265625 C-27.10063748 81.51258998 -27.10063748 81.51258998 -31.55859375 88.69140625 C-34.23513033 93.01589305 -36.80388165 97.39076891 -39.30859375 101.81640625 C-42.43485304 107.34027058 -45.70459155 112.75907329 -49.05078125 118.15234375 C-56.14609806 129.62192659 -62.99062068 141.24816854 -69.80688477 152.88500977 C-72.19692055 156.95569684 -74.6321664 160.99252438 -77.12109375 165.00390625 C-81.33760686 171.80666121 -85.39426006 178.70113737 -89.45800781 185.59594727 C-93.64005584 192.69053626 -97.85812782 199.76204794 -102.10595703 206.81738281 C-104.51078325 210.81468632 -106.90905645 214.81592649 -109.30859375 218.81640625 C-115.05359979 228.39441131 -115.05359979 228.39441131 -117.6171875 232.65234375 C-118.32693045 233.83196656 -119.03656768 235.01165298 -119.74609375 236.19140625 C-120.09760498 236.77567383 -120.44911621 237.35994141 -120.8112793 237.96191406 C-123.00526872 241.6177507 -125.17526343 245.28691632 -127.33203125 248.96484375 C-132.61175294 257.96092448 -137.93835397 266.90306665 -143.55859375 275.69140625 C-147.59367918 282.00143258 -151.43726313 288.37227295 -155.01660156 294.95263672 C-157.88616428 300.19896491 -161.03005996 305.26222091 -164.17675781 310.34619141 C-167.63556978 315.95410114 -170.96408617 321.6398885 -174.30859375 327.31640625 C-178.3130425 334.11301946 -182.33892793 340.88954015 -186.49609375 347.59375 C-207.04729586 380.88408839 -218.5564324 417.47407524 -218.49609375 456.69140625 C-218.4954895 457.41806488 -218.49488525 458.14472351 -218.4942627 458.8934021 C-218.44431924 481.09174745 -217.2356176 504.11752938 -208.515625 524.82421875 C-207.27825665 527.89161084 -206.38012434 530.9432806 -205.49609375 534.12890625 C-203.08915161 542.18777731 -199.23244584 549.41522301 -195.30859375 556.81640625 C-194.79039062 557.81929687 -194.2721875 558.8221875 -193.73828125 559.85546875 C-184.47408761 577.42199985 -172.08285571 593.56285832 -158.30859375 607.81640625 C-157.54933594 608.615625 -156.79007812 609.41484375 -156.0078125 610.23828125 C-127.2413926 639.87331418 -88.28751127 658.45598385 -48.2109375 666.67578125 C-41.7188486 668.01742993 -37.16984755 669.16651131 -32.30859375 673.81640625 C-29.23396651 678.97384549 -28.37123087 683.93185038 -29.30859375 689.81640625 C-31.08058485 694.66556468 -34.0532679 697.9440613 -38.30859375 700.81640625 C-39.20578125 701.43515625 -39.20578125 701.43515625 -40.12109375 702.06640625 C-48.17103666 704.82638668 -57.38763408 701.53272769 -65.37109375 699.69140625 C-66.06623077 699.53334503 -66.7613678 699.37528381 -67.47756958 699.21243286 C-77.54640981 696.90924397 -86.8568487 694.0572847 -96.30859375 689.81640625 C-99.06569559 688.75754882 -101.84394291 687.75877731 -104.62109375 686.75390625 C-110.73737155 684.50643382 -116.58081787 681.92813065 -122.30859375 678.81640625 C-122.30859375 678.15640625 -122.30859375 677.49640625 -122.30859375 676.81640625 C-123.03675293 676.70627197 -123.76491211 676.5961377 -124.51513672 676.48266602 C-127.47500577 675.77671578 -129.43009149 674.76071627 -132.00390625 673.15625 C-132.87917969 672.61403809 -133.75445312 672.07182617 -134.65625 671.51318359 C-135.57277344 670.93262207 -136.48929687 670.35206055 -137.43359375 669.75390625 C-138.37847656 669.1604541 -139.32335937 668.56700195 -140.296875 667.95556641 C-151.72963062 660.7233629 -162.08507672 652.65121786 -172.30859375 643.81640625 C-173.10910156 643.1409375 -173.90960938 642.46546875 -174.734375 641.76953125 C-178.72478058 638.37280183 -182.02627598 634.89712564 -185.30859375 630.81640625 C-186.05109375 630.07390625 -186.79359375 629.33140625 -187.55859375 628.56640625 C-202.29178428 613.83321572 -214.33461795 596.50983734 -224.38671875 578.296875 C-225.6372293 576.03223089 -226.91719249 573.78352017 -228.23046875 571.5546875 C-235.20944486 559.3135634 -239.73089653 546.10345515 -244.30859375 532.81640625 C-244.58864258 532.02991699 -244.86869141 531.24342773 -245.15722656 530.43310547 C-253.09550516 507.79450986 -254.7889792 481.94637588 -254.74609375 458.12890625 C-254.74622467 457.38474457 -254.74635559 456.64058289 -254.74649048 455.87387085 C-254.72022358 447.61493931 -254.28627874 439.44735722 -253.40625 431.234375 C-253.29113319 430.14737053 -253.29113319 430.14737053 -253.1736908 429.03840637 C-252.60184247 424.1621407 -251.54659694 419.56657404 -250.30859375 414.81640625 C-250.04325118 413.36906964 -249.79821603 411.9175675 -249.58984375 410.4609375 C-246.18574739 388.92935442 -238.85245407 367.88964951 -228.30859375 348.81640625 C-227.66392802 347.57631098 -227.02336287 346.33407622 -226.38671875 345.08984375 C-222.70458533 337.93944989 -218.68688333 331.07791925 -214.3737793 324.29125977 C-210.7112865 318.51475204 -207.2137366 312.64915055 -203.74609375 306.75390625 C-202.91380249 305.33924072 -202.91380249 305.33924072 -202.06469727 303.89599609 C-200.97972138 302.05148895 -199.89483904 300.20692678 -198.81005859 298.36230469 C-195.68700826 293.06683008 -192.51420765 287.80125116 -189.34277344 282.53466797 C-187.61988961 279.67214286 -185.90195151 276.80664958 -184.18359375 273.94140625 C-181.41279116 269.32132923 -178.63932613 264.70286695 -175.86328125 260.0859375 C-169.72470181 249.87177006 -163.60522662 239.64781959 -157.55859375 229.37890625 C-153.26789921 222.09315137 -148.90839511 214.85550341 -144.47827148 207.65380859 C-140.21664937 200.70808371 -136.08298764 193.68876594 -131.95117188 186.6652832 C-128.35242926 180.55640679 -124.6738085 174.50767917 -120.93359375 168.484375 C-119.07151374 165.42716191 -117.35041136 162.30973854 -115.63671875 159.16796875 C-113.69028776 155.72164095 -111.59757953 152.36883422 -109.51367188 149.00439453 C-104.0482852 140.17704294 -98.74714083 131.25184469 -93.4609375 122.31640625 C-93.11656647 121.73444489 -92.77219543 121.15248352 -92.41738892 120.55288696 C-90.69130696 117.63568127 -88.96659525 114.71769037 -87.24414062 111.79833984 C-83.89917252 106.14023845 -80.51947505 100.50810179 -77.0625 94.91796875 C-74.39027205 90.59299437 -71.79236265 86.25170785 -69.30859375 81.81640625 C-66.15364312 76.23019613 -62.83669104 70.76046232 -59.44921875 65.3125 C-56.95552097 61.27256871 -54.57476428 57.16753395 -52.18359375 53.06640625 C-49.1365696 47.84499069 -45.99927542 42.74626753 -42.5859375 37.75390625 C-40.84829701 35.11821914 -39.36147744 32.37218312 -37.8515625 29.6015625 C-16.7070834 -8.56556053 -16.7070834 -8.56556053 0 0 Z " fill="#030303" transform="translate(468.30859375,123.18359375)"/>
<path d="M0 0 C4.05523038 2.85709413 7.51585617 6.46921234 9.75 10.9375 C10.30376186 18.96704696 8.3383129 24.4586084 4.18359375 31.27734375 C3.65088867 32.15616211 3.11818359 33.03498047 2.56933594 33.94042969 C1.96895508 34.92946289 1.36857422 35.91849609 0.75 36.9375 C-0.6535399 39.27403275 -2.05591429 41.61123507 -3.45703125 43.94921875 C-4.21672448 45.21553823 -4.97649127 46.48181357 -5.73632812 47.74804688 C-6.11990479 48.38734131 -6.50348145 49.02663574 -6.89868164 49.68530273 C-10.35351563 55.44335938 -10.35351563 55.44335938 -11.49838257 57.35142517 C-12.26375623 58.6270785 -13.02907587 59.90276424 -13.79434204 61.17848206 C-15.71693596 64.38334028 -17.64046721 67.5876287 -19.56591797 70.79077148 C-23.69214686 77.65717057 -27.79557776 84.53606241 -31.8671875 91.43505859 C-38.26137853 102.26837031 -44.71707293 113.06225028 -51.25 123.8125 C-51.93126953 124.93358154 -52.61253906 126.05466309 -53.31445312 127.2097168 C-56.0132479 131.64340395 -58.71541249 136.07482535 -61.44165039 140.49169922 C-61.80246704 141.07646027 -62.16328369 141.66122131 -62.53503418 142.26370239 C-63.53674313 143.88574017 -64.53993032 145.50686477 -65.54321289 147.12792969 C-66.98241158 149.4970183 -68.36015948 151.87965182 -69.6875 154.3125 C-72.9578168 160.30625788 -76.53193185 166.12208958 -80.06054688 171.96582031 C-81.96303262 175.11944816 -83.85612688 178.27869542 -85.75 181.4375 C-86.49476802 182.67839961 -87.23955977 183.91928498 -87.984375 185.16015625 C-89.53847576 187.75009896 -91.09023977 190.34142527 -92.640625 192.93359375 C-93.0327417 193.58859863 -93.4248584 194.24360352 -93.82885742 194.91845703 C-94.60313973 196.21199433 -95.37675172 197.50593312 -96.1496582 198.80029297 C-98.02239997 201.928016 -99.93767948 205.0148502 -101.9375 208.0625 C-118.25975136 234.50231128 -119.6116384 265.66752901 -112.875 295.375 C-111.7539774 299.59865082 -110.3028929 303.32233518 -108.2109375 307.15234375 C-107.25 308.9375 -107.25 308.9375 -105.875 312.3125 C-94.24180209 338.26347995 -72.27193638 356.72872545 -46.22265625 367.1484375 C-45.36542969 367.47070312 -44.50820313 367.79296875 -43.625 368.125 C-38.20120453 370.21247759 -34.75580214 372.7791836 -31.375 377.625 C-29.83452214 382.16085147 -29.55505442 386.19642682 -30.25 390.9375 C-32.95182352 396.34114705 -37.43095719 400.94239961 -43.25 402.9375 C-52.34057633 403.91149032 -60.57116617 400.60186433 -68.25 395.9375 C-69.73760086 395.34298346 -71.23842311 394.7806049 -72.75 394.25 C-83.88803949 389.88084335 -93.28144218 382.71663018 -102.25 374.9375 C-103.054375 374.25558594 -103.85875 373.57367187 -104.6875 372.87109375 C-109.67226715 368.568364 -114.07103785 364.02128208 -118.25 358.9375 C-118.91 358.14214844 -119.57 357.34679687 -120.25 356.52734375 C-127.2168182 347.99035251 -132.82305217 339.30507825 -137.59375 329.37890625 C-138.56041826 327.37033375 -139.54981354 325.37186341 -140.59375 323.40234375 C-145.55605152 313.62088402 -147.81762728 302.57464754 -150.25 291.9375 C-150.55127808 290.64888062 -150.55127808 290.64888062 -150.85864258 289.33422852 C-152.55903585 281.22495219 -152.60509815 273.12363541 -152.5625 264.875 C-152.56067719 264.14516907 -152.55885437 263.41533813 -152.55697632 262.66339111 C-152.4857349 245.72649877 -150.21518489 230.82590126 -144.25 214.9375 C-143.94320313 214.08285156 -143.63640625 213.22820312 -143.3203125 212.34765625 C-141.35766036 207.12839105 -138.95616212 202.12587207 -136.5 197.125 C-136.0517688 196.20182983 -136.0517688 196.20182983 -135.59448242 195.26000977 C-132.86649288 189.81310769 -129.67271905 184.68419006 -126.45800781 179.51342773 C-124.17099988 175.82623555 -121.94660297 172.10351759 -119.734375 168.37109375 C-119.35143784 167.72511734 -118.96850067 167.07914093 -118.57395935 166.41358948 C-117.78588947 165.08307989 -116.99816885 163.75236339 -116.21078491 162.42144775 C-114.13384136 158.91103362 -112.05318421 155.4028218 -109.97265625 151.89453125 C-109.56441116 151.2059906 -109.15616608 150.51744995 -108.73554993 149.80804443 C-104.03153787 141.87762771 -99.28939206 133.9702114 -94.53271484 126.07128906 C-93.64547261 124.5953665 -92.76052999 123.11805999 -91.87744141 121.63964844 C-89.07133987 116.94487916 -86.22994623 112.27435977 -83.35546875 107.62109375 C-79.34968983 101.12418244 -75.44320555 94.57219388 -71.5625 88 C-70.8679495 86.82594347 -70.17328596 85.6519538 -69.47851562 84.47802734 C-66.18204131 78.90653755 -62.89189141 73.33133167 -59.60546875 67.75390625 C-54.54203888 59.16374533 -49.46036668 50.59577906 -44.19921875 42.125 C-42.31108575 39.03739174 -40.47206594 35.92604235 -38.64648438 32.80126953 C-36.52654202 29.17278141 -34.38917812 25.55467039 -32.25 21.9375 C-31.60297119 20.83776855 -31.60297119 20.83776855 -30.94287109 19.71582031 C-29.66292467 17.55211275 -28.36530474 15.40000436 -27.0625 13.25 C-26.68303223 12.60313232 -26.30356445 11.95626465 -25.91259766 11.28979492 C-19.77850262 1.28684412 -11.75755536 -3.84381618 0 0 Z " fill="#040404" transform="translate(467.25,319.0625)"/>
<path d="M0 0 C0 0.66 0 1.32 0 2 C0.71285156 2.226875 1.42570313 2.45375 2.16015625 2.6875 C15.9705515 9.07029616 22.97293785 25.93234462 28.25 39.125 C29.28148687 43.07903301 29.74989082 46.93572586 30 51 C30.07734375 52.17949219 30.1546875 53.35898437 30.234375 54.57421875 C30.91481115 73.8721439 23.30904501 90.31662144 11 105 C-1.40833253 118.27462269 -18.46778685 124.67567924 -36.21484375 126.29296875 C-44.07027104 126.5143969 -51.43295155 125.00794217 -59 123 C-59.93714844 122.75636719 -60.87429688 122.51273438 -61.83984375 122.26171875 C-72.97407342 118.81190603 -83.42792426 110.76869911 -91 102 C-91.58007812 101.37222656 -92.16015625 100.74445313 -92.7578125 100.09765625 C-98.36522147 93.57995362 -101.26334576 86.05242978 -104 78 C-104.27142822 77.2272876 -104.54285645 76.4545752 -104.82250977 75.65844727 C-106.81198549 69.6214786 -107.51303312 64.15490287 -107.4375 57.8125 C-107.42505249 56.44448242 -107.42505249 56.44448242 -107.41235352 55.04882812 C-106.94890812 36.27351707 -99.07008024 20.37761154 -86 7 C-78.56865827 0.46400064 -69.98116791 -4.00131747 -61 -8 C-60.20464844 -8.36351562 -59.40929687 -8.72703125 -58.58984375 -9.1015625 C-39.34099094 -16.36656162 -16.97180953 -9.3891351 0 0 Z " fill="#030303" transform="translate(560,562)"/>
<path d="M0 0 C1.00289062 -0.01160156 2.00578125 -0.02320313 3.0390625 -0.03515625 C10.11559097 -0.00772785 16.27914495 1.20979032 23 3.375 C23.72364746 3.59768555 24.44729492 3.82037109 25.19287109 4.04980469 C40.38420754 8.88509092 54.81670222 22.33417509 62.25 36.25 C70.81204246 54.93427933 71.64600796 74.53599867 64.83203125 93.90234375 C62.42605865 100.088202 59.19834774 105.21258722 55 110.375 C54.34515625 111.2309375 53.6903125 112.086875 53.015625 112.96875 C42.75734652 125.46379596 27.87009672 133.71811356 12 136.375 C-7.20161292 138.06200148 -25.911482 135.43610952 -41.23046875 122.79296875 C-54.95675569 110.8832101 -65.6091521 95.74986432 -67.28320312 77.24438477 C-67.39941666 74.09455469 -67.41008289 70.96411285 -67.375 67.8125 C-67.38660156 66.76642578 -67.39820313 65.72035156 -67.41015625 64.64257812 C-67.35516969 49.87868749 -61.70011619 33.0419889 -51 22.375 C-50.34 22.375 -49.68 22.375 -49 22.375 C-48.75765625 21.79363281 -48.5153125 21.21226562 -48.265625 20.61328125 C-42.67445326 10.72519049 -28.26698214 4.8658124 -17.80859375 1.69921875 C-11.83570021 0.14846066 -6.14541917 -0.07109097 0 0 Z " fill="#030303" transform="translate(697,721.625)"/>
<path d="M0 0 C5.09766147 2.99806806 8.93905547 6.3015414 10.85546875 12.05078125 C11.60277024 19.59565201 10.1236102 24.14290759 5.41796875 30.17578125 C1.01964785 35.11048274 1.01964785 35.11048274 -1.14453125 37.05078125 C-1.80453125 37.05078125 -2.46453125 37.05078125 -3.14453125 37.05078125 C-3.48484375 37.91703125 -3.48484375 37.91703125 -3.83203125 38.80078125 C-5.48853638 41.64050433 -7.57021113 43.00302661 -10.14453125 45.05078125 C-11.7070129 46.76951107 -13.18978838 48.54240555 -14.6796875 50.32421875 C-17.70827805 53.89391748 -21.05748053 56.99778108 -24.64453125 59.98828125 C-27.02029133 61.98102118 -29.02363702 64.00190942 -30.95703125 66.42578125 C-31.67890625 67.29203125 -32.40078125 68.15828125 -33.14453125 69.05078125 C-33.80453125 69.05078125 -34.46453125 69.05078125 -35.14453125 69.05078125 C-35.51578125 69.91703125 -35.51578125 69.91703125 -35.89453125 70.80078125 C-37.32753113 73.38018104 -38.92877801 75.11199717 -41.14453125 77.05078125 C-41.80453125 77.05078125 -42.46453125 77.05078125 -43.14453125 77.05078125 C-43.51578125 77.91703125 -43.51578125 77.91703125 -43.89453125 78.80078125 C-45.32753113 81.38018104 -46.92877801 83.11199717 -49.14453125 85.05078125 C-49.80453125 85.05078125 -50.46453125 85.05078125 -51.14453125 85.05078125 C-51.51578125 85.91703125 -51.51578125 85.91703125 -51.89453125 86.80078125 C-53.32753113 89.38018104 -54.92877801 91.11199717 -57.14453125 93.05078125 C-57.80453125 93.05078125 -58.46453125 93.05078125 -59.14453125 93.05078125 C-59.48484375 93.91703125 -59.48484375 93.91703125 -59.83203125 94.80078125 C-61.48853638 97.64050433 -63.57021113 99.00302661 -66.14453125 101.05078125 C-67.70458467 102.76684001 -69.18502806 104.53675314 -70.671875 106.31640625 C-73.36557963 109.48883293 -76.2111439 112.33845933 -79.51953125 114.86328125 C-81.75111816 116.722937 -83.43492755 118.47729011 -85.30078125 120.67578125 C-89.10143486 125.06386278 -93.14095234 129.16043157 -97.26953125 133.23828125 C-97.95917969 133.92341797 -98.64882813 134.60855469 -99.359375 135.31445312 C-100.68971878 136.63589403 -102.02135968 137.95603076 -103.35449219 139.2746582 C-104.90562724 140.81373451 -106.44463984 142.36366669 -107.98046875 143.91796875 C-110.14453125 146.05078125 -110.14453125 146.05078125 -112.64453125 147.98828125 C-115.29033439 150.0399502 -115.29033439 150.0399502 -117.58203125 152.98828125 C-119.75501044 155.58525638 -121.90687518 157.53908875 -124.5390625 159.63671875 C-127.11358315 161.90430141 -129.25806124 164.5258317 -131.484375 167.12890625 C-134.28422373 170.3701429 -137.18620054 173.31360378 -140.58203125 175.92578125 C-143.32244304 178.19831785 -145.40980041 180.66610534 -147.67578125 183.39453125 C-149.6089946 185.5745378 -151.87191315 187.23268677 -154.14453125 189.05078125 C-155.70254554 190.77039808 -157.18773506 192.53997152 -158.67578125 194.3203125 C-161.54438852 197.70008118 -164.63763588 200.64095095 -168.08203125 203.42578125 C-171.00664213 205.80907598 -173.35040681 208.51129435 -175.76171875 211.40234375 C-177.45149194 213.41670615 -179.18234624 215.29883035 -181.14453125 217.05078125 C-181.80453125 217.05078125 -182.46453125 217.05078125 -183.14453125 217.05078125 C-183.47453125 218.04078125 -183.80453125 219.03078125 -184.14453125 220.05078125 C-190.71435318 227.20029335 -197.48726865 234.02745113 -207.58203125 234.55078125 C-213.26347486 234.41107362 -216.02372041 232.89687137 -220.14453125 229.05078125 C-220.14453125 228.39078125 -220.14453125 227.73078125 -220.14453125 227.05078125 C-220.80453125 227.05078125 -221.46453125 227.05078125 -222.14453125 227.05078125 C-224.55198741 221.18260687 -225.47668917 215.27903177 -223.01953697 209.3245554 C-220.74690219 205.3565179 -218.02001838 202.51883985 -214.78115845 199.3266449 C-213.80867804 198.35031958 -213.80867804 198.35031958 -212.81655157 197.35427052 C-210.64729525 195.18008201 -208.46750797 193.01677386 -206.28759766 190.85327148 C-204.72814077 189.29466103 -203.16934461 187.73538925 -201.61116028 186.17550659 C-197.3802254 181.9437106 -193.1400997 177.72123289 -188.89828157 173.50034976 C-184.46029993 169.08113126 -180.03082118 164.65340688 -175.60043335 160.22657776 C-168.15868989 152.79310198 -160.71173053 145.36488142 -153.26074219 137.94067383 C-145.60001785 130.30745523 -137.94242522 122.67111752 -130.2890625 115.03051758 C-129.81774539 114.55998864 -129.34642828 114.0894597 -128.86082883 113.60467231 C-126.49557692 111.24333662 -124.13039102 108.88193484 -121.76522946 106.52050865 C-105.45794088 90.23927296 -89.14429789 73.96442704 -72.82365417 57.69657898 C-72.13470609 57.00984968 -71.44575801 56.32312038 -70.73593271 55.6155811 C-69.46982625 54.35358854 -68.203678 53.09163791 -66.93747675 51.82974046 C-59.95241368 44.86857123 -59.95241368 44.86857123 -53.01611328 37.85888672 C-48.70781789 33.47908296 -44.38707776 29.11177478 -40.06201172 24.74853516 C-38.20033547 22.86667637 -36.34225585 20.9812527 -34.48779297 19.09228516 C-31.80208307 16.3579953 -29.10360635 13.636884 -26.40234375 10.91796875 C-25.57920685 10.07418671 -24.75606995 9.23040466 -23.9079895 8.36105347 C-17.40435856 1.85491679 -9.61142567 -4.25423759 0 0 Z " fill="#030303" transform="translate(716.14453125,587.94921875)"/>
<path d="M0 0 C1.67557421 1.08020527 3.32498003 2.2027493 4.9375 3.375 C5.61425781 3.83132813 6.29101562 4.28765625 6.98828125 4.7578125 C12.11087546 8.59701587 14.48268869 13.57355455 16.9375 19.375 C17.30617188 20.18195312 17.67484375 20.98890625 18.0546875 21.8203125 C20.32052533 28.37720606 19.72836614 36.21242298 16.90234375 42.515625 C16.58394531 43.12921875 16.26554688 43.7428125 15.9375 44.375 C15.44443359 45.35726562 15.44443359 45.35726562 14.94140625 46.359375 C9.94950512 55.27225037 2.7929016 60.97515246 -7.0234375 63.74609375 C-16.77190998 65.76345117 -24.31817468 64.13552095 -33.0625 59.375 C-40.64330005 53.94886187 -46.42884808 45.63722296 -48.0625 36.375 C-48.88751005 28.09396165 -48.29401344 21.58914271 -44.0625 14.375 C-43.485 13.34375 -42.9075 12.3125 -42.3125 11.25 C-32.2778818 -1.57201215 -15.23811791 -7.97587439 0 0 Z " fill="#FAFAFA" transform="translate(536.0625,588.625)"/>
<path d="M0 0 C8.43421668 6.40096802 14.81362868 13.44564636 17 24 C18.16710543 35.34763951 15.72126765 43.28655437 8.6953125 52.1484375 C2.9169453 58.4593731 -3.76942549 62.5590148 -12.3359375 63.28125 C-19.12265662 63.4548974 -24.99792564 63.32190279 -31 60 C-31.74894531 59.5978125 -32.49789062 59.195625 -33.26953125 58.78125 C-42.44917943 53.30086303 -46.74656077 45.10279212 -49.55078125 35.01953125 C-51.43811602 26.53473061 -49.11318143 19.497571 -45 12 C-40.18469497 5.05967993 -34.24642696 0.0955755 -26.18359375 -2.609375 C-17.95595893 -4.08122381 -7.38936968 -4.31952125 0 0 Z " fill="#FBFBFB" transform="translate(714,760)"/>
<path d="M0 0 C0.99 0.495 0.99 0.495 2 1 C0.54143895 3.9171221 -1.62423837 5.79807458 -4 8 C-4.66 8 -5.32 8 -6 8 C-6.33 8.99 -6.66 9.98 -7 11 C-9.4375 13.6875 -9.4375 13.6875 -12 16 C-12.66 16 -13.32 16 -14 16 C-14.495 17.485 -14.495 17.485 -15 19 C-16.4375 20.6875 -16.4375 20.6875 -18 22 C-18.66 22 -19.32 22 -20 22 C-20 22.66 -20 23.32 -20 24 C-20.66 24 -21.32 24 -22 24 C-22.495 25.485 -22.495 25.485 -23 27 C-25.33203016 29.64296752 -26.61673278 30.87224426 -30 32 C-30.33 32.99 -30.66 33.98 -31 35 C-31.969375 35.804375 -32.93875 36.60875 -33.9375 37.4375 C-36.61294693 39.67613927 -37.82408011 40.8250163 -39 44 C-39.66 44 -40.32 44 -41 44 C-42.94830325 45.74937739 -44.79078718 47.51285501 -46.625 49.375 C-47.140625 49.88289062 -47.65625 50.39078125 -48.1875 50.9140625 C-51.09051912 53.47429427 -51.09051912 53.47429427 -52 57 C-52.7425 57.433125 -53.485 57.86625 -54.25 58.3125 C-57.30089051 60.18463736 -58.86626545 62.1550206 -61 65 C-61.97850195 66.02104551 -62.97980427 67.0206121 -64 68 C-64.845625 68.845625 -65.69125 69.69125 -66.5625 70.5625 C-68.04166667 72.04166667 -69.52083333 73.52083333 -71 75 C-72.2375 76.2684375 -72.2375 76.2684375 -73.5 77.5625 C-76 80 -76 80 -78 81 C-78.495 81.99 -78.495 81.99 -79 83 C-80.64429829 84.68873879 -82.31384218 86.35305515 -84 88 C-85.0209375 89.0828125 -85.0209375 89.0828125 -86.0625 90.1875 C-87.96011212 91.96268553 -89.62498984 92.9821385 -92 94 C-90.5746718 90.75478079 -88.84594258 88.59846085 -86.34274292 86.10223389 C-85.58271973 85.33946136 -84.82269653 84.57668884 -84.03964233 83.790802 C-82.78807846 82.55002396 -82.78807846 82.55002396 -81.51123047 81.28417969 C-80.63311707 80.40577423 -79.75500366 79.52736877 -78.85028076 78.62234497 C-76.44496569 76.21818389 -74.0353008 73.81854464 -71.62359381 71.42080593 C-69.10291801 68.91263872 -66.58791065 66.39880074 -64.07229614 63.88555908 C-59.30937182 59.12884914 -54.54137253 54.37726014 -49.77152836 49.62749028 C-44.34079612 44.2191183 -38.91574666 38.80506134 -33.49116683 33.39051962 C-22.33375525 22.2540091 -11.16922952 11.12465858 0 0 Z " fill="#161616" transform="translate(586,703)"/>
<path d="M0 0 C0.495 0.99 0.495 0.99 1 2 C0.21625 2.763125 -0.5675 3.52625 -1.375 4.3125 C-4.07257717 6.90891805 -4.07257717 6.90891805 -6 10 C-7.64429829 11.68873879 -9.31384218 13.35305515 -11 15 C-11.86625 15.86625 -12.7325 16.7325 -13.625 17.625 C-14.40875 18.40875 -15.1925 19.1925 -16 20 C-16.495 20.515625 -16.99 21.03125 -17.5 21.5625 C-19 23 -19 23 -21.5 24.9375 C-23.78974731 26.82654153 -25.27509467 28.61798788 -27 31 C-27.66 31.33 -28.32 31.66 -29 32 C-29.66 32.99 -30.32 33.98 -31 35 C-31.99 35.495 -31.99 35.495 -33 36 C-33.66 36.99 -34.32 37.98 -35 39 C-36.6454378 40.68762851 -38.31288577 42.3540349 -40 44 C-40.495 44.495 -40.99 44.99 -41.5 45.5 C-43.66666667 47.66666667 -45.83333333 49.83333333 -48 52 C-48.556875 52.5775 -49.11375 53.155 -49.6875 53.75 C-51 55 -51 55 -53 56 C-54.13350534 58.01669827 -54.13350534 58.01669827 -55 60 C-56.32 59.67 -57.64 59.34 -59 59 C-39.53 39.53 -20.06 20.06 0 0 Z " fill="#141414" transform="translate(646,643)"/>
<path d="M0 0 C0.33 0.99 0.66 1.98 1 3 C-1.47942992 7.85105854 -4.64158007 10.4323115 -9.0390625 13.5546875 C-11.62681395 15.46199435 -13.79445485 17.6684237 -16 20 C-17 21 -18 22 -19 23 C-19.99 22.67 -20.98 22.34 -22 22 C-20.625 20.5 -20.625 20.5 -19 19 C-18.34 19 -17.68 19 -17 19 C-16.67 18.01 -16.34 17.02 -16 16 C-14.29296875 14.3515625 -14.29296875 14.3515625 -12.1875 12.625 C-9.04437383 9.96370778 -6.49257691 7.29376235 -4 4 C-2.68505488 2.64852862 -1.35735142 1.30887458 0 0 Z " fill="#D4D4D4" transform="translate(717,621)"/>
<path d="M0 0 C0.66 0.99 1.32 1.98 2 3 C0.9171875 3.5259375 0.9171875 3.5259375 -0.1875 4.0625 C-3.30674669 6.21131439 -4.85528359 8.34007955 -6.88671875 11.4765625 C-8 13 -8 13 -10 14 C-10.495 14.515625 -10.99 15.03125 -11.5 15.5625 C-13 17 -13 17 -15 17 C-15.33 18.32 -15.66 19.64 -16 21 C-17.32 20.34 -18.64 19.68 -20 19 C-19.09121094 18.19949219 -19.09121094 18.19949219 -18.1640625 17.3828125 C-11.87883813 11.7937976 -5.88976901 6.00255182 0 0 Z " fill="#F0F0F0" transform="translate(628,711)"/>
<path d="M0 0 C0.66 1.32 1.32 2.64 2 4 C0.9171875 4.8353125 0.9171875 4.8353125 -0.1875 5.6875 C-3.59721823 8.4910461 -6.62675305 11.57589205 -9.6875 14.75 C-11 16 -11 16 -13 17 C-13.33 17.99 -13.66 18.98 -14 20 C-16.0625 21.1875 -16.0625 21.1875 -18 22 C-18 19 -18 19 -15.875 16.75 C-14.92625 15.8425 -13.9775 14.935 -13 14 C-11.98879563 12.82202633 -10.98906899 11.63411973 -10 10.4375 C-7.57738393 7.55908246 -4.97450122 5.31350095 -2 3 C-1.34 2.01 -0.68 1.02 0 0 Z " fill="#E6E6E6" transform="translate(688,650)"/>
<path d="M0 0 C0.66 0.33 1.32 0.66 2 1 C0.54822932 3.64963085 -0.91098862 6.29464509 -2.375 8.9375 C-2.7875 9.69224609 -3.2 10.44699219 -3.625 11.22460938 C-4.02460938 11.94326172 -4.42421875 12.66191406 -4.8359375 13.40234375 C-5.20251465 14.06741943 -5.5690918 14.73249512 -5.94677734 15.41772461 C-7 17 -7 17 -9 18 C-9.43564103 13.49837598 -8.30206035 11.44805606 -5.625 7.875 C-4.99851562 7.02679688 -4.37203125 6.17859375 -3.7265625 5.3046875 C-2.87191406 4.16386719 -2.87191406 4.16386719 -2 3 C-1.34 2.01 -0.68 1.02 0 0 Z " fill="#E0E0E0" transform="translate(295,376)"/>
<path d="M0 0 C0.68707555 2.49064888 1 4.37886292 1 7 C0.01 7.33 -0.98 7.66 -2 8 C-3.70884005 9.62339805 -5.37446717 11.29319053 -7 13 C-8 14 -9 15 -10 16 C-10.66 15.67 -11.32 15.34 -12 15 C-11.46890625 14.41992188 -10.9378125 13.83984375 -10.390625 13.2421875 C-6.55640802 9.00215924 -2.99783758 4.87148607 0 0 Z " fill="#D6D6D6" transform="translate(579,655)"/>
<path d="M0 0 C1.09658936 3.28976808 0.79953138 4.71303767 0 8 C-0.99 8.33 -1.98 8.66 -3 9 C-3.144375 9.639375 -3.28875 10.27875 -3.4375 10.9375 C-4 13 -4 13 -6.0625 14.25 C-6.701875 14.4975 -7.34125 14.745 -8 15 C-6.51194289 9.19657726 -3.40902445 4.82409121 0 0 Z " fill="#292929" transform="translate(407,192)"/>
<path d="M0 0 C0.33 0.66 0.66 1.32 1 2 C0.33333333 3.33333333 -0.33333333 4.66666667 -1 6 C-1 7.32 -1 8.64 -1 10 C-2.06546953 12.13093906 -3.29159719 13.36587557 -5 15 C-5 14.34 -5 13.68 -5 13 C-5.66 12.67 -6.32 12.34 -7 12 C-4.69 8.04 -2.38 4.08 0 0 Z " fill="#DCDCDC" transform="translate(392,285)"/>
<path d="M0 0 C0.66 0.33 1.32 0.66 2 1 C-1.75 5.875 -1.75 5.875 -4 7 C-4.99 8.485 -4.99 8.485 -6 10 C-7.6396721 11.36639342 -9.30327614 12.70513179 -11 14 C-11.66 13.34 -12.32 12.68 -13 12 C-12.55269531 11.62488281 -12.10539063 11.24976563 -11.64453125 10.86328125 C-7.92567401 7.715336 -4.39476996 4.49461613 -1 1 C-0.67 0.67 -0.34 0.34 0 0 Z " fill="#DEDEDE" transform="translate(585,754)"/>
<path d="M0 0 C2.97 0 5.94 0 9 0 C9.33 0.66 9.66 1.32 10 2 C3.92972642 4.1583195 -1.59370576 4.20852314 -8 4 C-8 3.67 -8 3.34 -8 3 C-6.865625 2.87625 -5.73125 2.7525 -4.5625 2.625 C-3.386875 2.41875 -2.21125 2.2125 -1 2 C-0.67 1.34 -0.34 0.68 0 0 Z " fill="#CDCDCD" transform="translate(523,649)"/>
<path d="M0 0 C0.66 0.66 1.32 1.32 2 2 C1.2575 2.53625 0.515 3.0725 -0.25 3.625 C-3.181988 6.15717146 -4.89475324 8.77195496 -7 12 C-7.99 12.66 -8.98 13.32 -10 14 C-10.33 13.01 -10.66 12.02 -11 11 C-7.33333333 7.33333333 -3.66666667 3.66666667 0 0 Z " fill="#161616" transform="translate(658,631)"/>
<path d="M0 0 C2.8125 1.25 2.8125 1.25 3.8125 3.25 C5.79138961 3.97693904 7.79204558 4.64816251 9.8125 5.25 C5.73570841 6.9352084 2.98174407 5.41939007 -0.9375 3.8125 C-2.10796875 3.33941406 -3.2784375 2.86632812 -4.484375 2.37890625 C-5.37640625 2.00636719 -6.2684375 1.63382813 -7.1875 1.25 C-4.17279362 -0.50258419 -3.56796792 -0.83952186 0 0 Z " fill="#393939" transform="translate(381.1875,812.75)"/>
<path d="M0 0 C1.13757948 4.55031791 0.4283779 6.63084406 -1 11 C-1.66 10.67 -2.32 10.34 -3 10 C-4.485 12.475 -4.485 12.475 -6 15 C-6.66 14.67 -7.32 14.34 -8 14 C-5.36 9.38 -2.72 4.76 0 0 Z " fill="#DADADA" transform="translate(384,298)"/>
<path d="M0 0 C0.99 0.33 1.98 0.66 3 1 C3 1.99 3 2.98 3 4 C2.01 4.66 1.02 5.32 0 6 C-0.72965366 8.56282742 -0.72965366 8.56282742 -1 11 C-2.32 11.33 -3.64 11.66 -5 12 C-3.68938409 7.76570244 -2.05643741 3.92592596 0 0 Z " fill="#252525" transform="translate(237,478)"/>
<path d="M0 0 C0.66 0.99 1.32 1.98 2 3 C1.2265625 4.175625 1.2265625 4.175625 0.4375 5.375 C-0.036875 6.24125 -0.51125 7.1075 -1 8 C-0.67 8.66 -0.34 9.32 0 10 C-0.99 10.495 -0.99 10.495 -2 11 C-2.68931344 13.34907875 -2.68931344 13.34907875 -3.125 16.0625 C-3.29257812 16.98160156 -3.46015625 17.90070312 -3.6328125 18.84765625 C-3.75398437 19.55792969 -3.87515625 20.26820313 -4 21 C-4.33 21 -4.66 21 -5 21 C-5.67360912 12.91669061 -3.44171655 7.2644803 0 0 Z " fill="#C2C2C2" transform="translate(669,772)"/>
<path d="M0 0 C0.33 0.66 0.66 1.32 1 2 C1.66 2.33 2.32 2.66 3 3 C2.55269531 3.37511719 2.10539063 3.75023437 1.64453125 4.13671875 C-2.07368722 7.2841233 -5.607181 10.5043683 -9 14 C-9.66 13.34 -10.32 12.68 -11 12 C-10.54109375 11.63648438 -10.0821875 11.27296875 -9.609375 10.8984375 C-5.56506013 7.58481817 -2.67466686 4.49344033 0 0 Z " fill="#2D2D2D" transform="translate(727,805)"/>
<path d="M0 0 C2.93200474 2.85276137 5.64315404 5.65079784 8 9 C6.35 9.33 4.7 9.66 3 10 C0.96564469 6.27034861 0 4.33094958 0 0 Z " fill="#DDDDDD" transform="translate(344,672)"/>
<path d="M0 0 C1.17539996 0.92652701 2.34010577 1.86663387 3.5 2.8125 C4.1496875 3.33457031 4.799375 3.85664062 5.46875 4.39453125 C7 6 7 6 7 9 C5.68 8.34 4.36 7.68 3 7 C3 6.34 3 5.68 3 5 C1.68 4.67 0.36 4.34 -1 4 C-0.67 2.68 -0.34 1.36 0 0 Z " fill="#131313" transform="translate(565,567)"/>
<path d="M0 0 C2.64752004 2.57784846 4.94432065 4.91648098 7 8 C4.66666667 8 2.33333333 8 0 8 C0 5.36 0 2.72 0 0 Z " fill="#E0E0E0" transform="translate(641,829)"/>
<path d="M0 0 C0.66 0 1.32 0 2 0 C1.34 5.61 0.68 11.22 0 17 C-0.33 17 -0.66 17 -1 17 C-2.51282051 5.65384615 -2.51282051 5.65384615 0 0 Z " fill="#C3C3C3" transform="translate(218,527)"/>
<path d="M0 0 C0.33 0 0.66 0 1 0 C1.20193076 3.63475376 0.98634358 5.92116745 -1 9 C-2.29470975 10.37086915 -3.62150897 11.71340837 -5 13 C-5.66 12.67 -6.32 12.34 -7 12 C-5.85865673 9.99743426 -4.71181367 7.99800203 -3.5625 6 C-2.92441406 4.88625 -2.28632813 3.7725 -1.62890625 2.625 C-1.09136719 1.75875 -0.55382812 0.8925 0 0 Z " fill="#DFDFDF" transform="translate(294,449)"/>
<path d="M0 0 C4.20626034 1.50223584 5.73900021 4.28550034 8 8 C5 8 5 8 3.39453125 6.46875 C2.87246094 5.8190625 2.35039063 5.169375 1.8125 4.5 C1.28269531 3.8503125 0.75289062 3.200625 0.20703125 2.53125 C-0.19128906 2.0259375 -0.58960938 1.520625 -1 1 C-0.67 0.67 -0.34 0.34 0 0 Z " fill="#E0E0E0" transform="translate(744,737)"/>
<path d="M0 0 C0.66 0 1.32 0 2 0 C2.66 2.64 3.32 5.28 4 8 C3.01 8 2.02 8 1 8 C-0.6875 6 -0.6875 6 -2 4 C-1.34 2.68 -0.68 1.36 0 0 Z " fill="#EEEEEE" transform="translate(292,705)"/>
<path d="M0 0 C0.66 0 1.32 0 2 0 C3.5078125 1.53125 3.5078125 1.53125 5.125 3.5 C5.66382813 4.1496875 6.20265625 4.799375 6.7578125 5.46875 C7.16773438 5.9740625 7.57765625 6.479375 8 7 C7.34 8.32 6.68 9.64 6 11 C4.9944239 9.54550599 3.99569565 8.08627557 3 6.625 C2.443125 5.81289063 1.88625 5.00078125 1.3125 4.1640625 C0 2 0 2 0 0 Z " fill="#E6E6E6" transform="translate(364,637)"/>
<path d="M0 0 C2.475 0.99 2.475 0.99 5 2 C5 2.66 5 3.32 5 4 C5.66 4 6.32 4 7 4 C7.33 5.65 7.66 7.3 8 9 C7.01 9 6.02 9 5 9 C3.35 6.03 1.7 3.06 0 0 Z " fill="#E4E4E4" transform="translate(592,327)"/>
<path d="M0 0 C1 3 1 3 -0.125 6 C-2.12296319 9.1967411 -3.65457282 10.37249489 -7 12 C-5.44298069 7.32894208 -2.91552627 3.91294315 0 0 Z " fill="#282828" transform="translate(646,744)"/>
<path d="M0 0 C1.6396875 0.0928125 1.6396875 0.0928125 3.3125 0.1875 C3.3125 0.8475 3.3125 1.5075 3.3125 2.1875 C4.6325 2.5175 5.9525 2.8475 7.3125 3.1875 C2.6925 3.1875 -1.9275 3.1875 -6.6875 3.1875 C-3.6875 0.1875 -3.6875 0.1875 0 0 Z " fill="#C9C9C9" transform="translate(699.6875,718.8125)"/>
<path d="M0 0 C1.125 1.75 1.125 1.75 2 4 C0.9476188 7.47285795 -1.04116579 9.02744386 -4 11 C-4.66 10.67 -5.32 10.34 -6 10 C-5.65066406 9.52949219 -5.30132813 9.05898438 -4.94140625 8.57421875 C-4.48636719 7.95160156 -4.03132812 7.32898438 -3.5625 6.6875 C-2.88380859 5.76517578 -2.88380859 5.76517578 -2.19140625 4.82421875 C-0.82663692 2.90322899 -0.82663692 2.90322899 0 0 Z " fill="#DBDBDB" transform="translate(726,609)"/>
<path d="M0 0 C0.66 0.33 1.32 0.66 2 1 C0.7508258 4.45925163 -0.67527795 7.14693203 -3 10 C-4.125 5.25 -4.125 5.25 -3 3 C-2.34 3 -1.68 3 -1 3 C-0.67 2.01 -0.34 1.02 0 0 Z " fill="#E6E6E6" transform="translate(269,418)"/>
<path d="M0 0 C0.99 0.66 1.98 1.32 3 2 C1.68 4.31 0.36 6.62 -1 9 C-1.99 9 -2.98 9 -4 9 C-4 5.00095031 -2.27413033 3.19799578 0 0 Z " fill="#0E0E0E" transform="translate(389,284)"/>
<path d="M0 0 C6.93 0.495 6.93 0.495 14 1 C14 1.33 14 1.66 14 2 C12.77023437 2.09087891 12.77023437 2.09087891 11.515625 2.18359375 C9.89914062 2.30927734 9.89914062 2.30927734 8.25 2.4375 C6.64898438 2.55931641 6.64898438 2.55931641 5.015625 2.68359375 C2.56320038 2.94090773 0.36078709 3.31812218 -2 4 C-1.34 2.68 -0.68 1.36 0 0 Z " fill="#1A1A1A" transform="translate(512,584)"/>
<path d="M0 0 C0.33 0 0.66 0 1 0 C1.125 2.875 1.125 2.875 1 6 C0.34 6.66 -0.32 7.32 -1 8 C-1.33 8.66 -1.66 9.32 -2 10 C-4.0625 11.125 -4.0625 11.125 -6 12 C-4.43358249 7.69235185 -2.31663844 3.93828536 0 0 Z " fill="#D8D8D8" transform="translate(420,434)"/>
<path d="M0 0 C1.32 0.66 2.64 1.32 4 2 C2.92598892 4.91517292 2.22189824 6.77810176 0 9 C-1.10844919 5.67465243 -0.84454356 3.37817425 0 0 Z " fill="#E9E9E9" transform="translate(282,392)"/>
<path d="M0 0 C1.32 0.33 2.64 0.66 4 1 C2.87548273 3.9719385 1.77706209 6.33440687 0 9 C-0.66 9 -1.32 9 -2 9 C-1.34 6.03 -0.68 3.06 0 0 Z " fill="#EDEDED" transform="translate(330,313)"/>
<path d="M0 0 C2 1.125 2 1.125 4 3 C4.25 6.1875 4.25 6.1875 4 9 C3.01 9.495 3.01 9.495 2 10 C-1.07692308 5.69230769 -1.07692308 5.69230769 -0.6875 2.1875 C-0.460625 1.465625 -0.23375 0.74375 0 0 Z " fill="#EEEEEE" transform="translate(546,244)"/>
<path d="M0 0 C2.74277578 3.19990508 4.6302836 6.00499382 6 10 C5.01 9.67 4.02 9.34 3 9 C3 8.34 3 7.68 3 7 C2.01 7 1.02 7 0 7 C0 4.69 0 2.38 0 0 Z " fill="#1D1D1D" transform="translate(499,172)"/>
<path d="M0 0 C5.94 0.99 5.94 0.99 12 2 C12 2.33 12 2.66 12 3 C7.71 3 3.42 3 -1 3 C-0.67 2.01 -0.34 1.02 0 0 Z " fill="#E0E0E0" transform="translate(401,822)"/>
<path d="M0 0 C0.33 0.66 0.66 1.32 1 2 C-3.35690968 9.00217628 -3.35690968 9.00217628 -7 11 C-7.99 10.67 -8.98 10.34 -10 10 C-9.44570313 9.52949219 -8.89140625 9.05898438 -8.3203125 8.57421875 C-7.59585938 7.95160156 -6.87140625 7.32898438 -6.125 6.6875 C-5.40570312 6.07261719 -4.68640625 5.45773437 -3.9453125 4.82421875 C-1.80820669 2.9587676 -1.80820669 2.9587676 0 0 Z " fill="#D7D7D7" transform="translate(554,784)"/>
<path d="M0 0 C0.33 0.99 0.66 1.98 1 3 C-2.21311475 8.73770492 -2.21311475 8.73770492 -6 10 C-6 6.41087588 -5.33563446 5.89142971 -3 3.3125 C-2.443125 2.68988281 -1.88625 2.06726563 -1.3125 1.42578125 C-0.879375 0.95527344 -0.44625 0.48476563 0 0 Z " fill="#DFDFDF" transform="translate(717,621)"/>
<path d="M0 0 C0.99 0 1.98 0 3 0 C4.125 3.75 4.125 3.75 3 6 C3.66 6.33 4.32 6.66 5 7 C4.34 7.66 3.68 8.32 3 9 C0.9375 6.1875 0.9375 6.1875 -1 3 C-0.67 2.01 -0.34 1.02 0 0 Z " fill="#131313" transform="translate(641,473)"/>
<path d="M0 0 C0.33 0 0.66 0 1 0 C0.67 2.64 0.34 5.28 0 8 C-1.65 8.66 -3.3 9.32 -5 10 C-3.66654496 6.40992874 -2.1056769 3.20429093 0 0 Z " fill="#DBDBDB" transform="translate(436,408)"/>
<path d="M0 0 C0.99 0 1.98 0 3 0 C1.6302836 3.99500618 -0.25722422 6.80009492 -3 10 C-3.33 9.01 -3.66 8.02 -4 7 C-2.6875 4.8125 -2.6875 4.8125 -1 3 C-0.34 3 0.32 3 1 3 C0.67 2.01 0.34 1.02 0 0 Z " fill="#DFDFDF" transform="translate(428,348)"/>
<path d="M0 0 C2.74277578 3.19990508 4.6302836 6.00499382 6 10 C4.125 9.75 4.125 9.75 2 9 C-0.11103658 6.04454879 -0.19785783 3.56144099 0 0 Z " fill="#E0E0E0" transform="translate(474,198)"/>
<path d="M0 0 C0.99 0.66 1.98 1.32 3 2 C2.02526874 3.66926454 1.04510211 5.33535642 0.0625 7 C-0.48277344 7.928125 -1.02804687 8.85625 -1.58984375 9.8125 C-2.05519531 10.534375 -2.52054687 11.25625 -3 12 C-3.33 12 -3.66 12 -4 12 C-4 10.35 -4 8.7 -4 7 C-3.01 6.67 -2.02 6.34 -1 6 C-0.67 4.02 -0.34 2.04 0 0 Z " fill="#DBDBDB" transform="translate(434,142)"/>
<path d="M0 0 C1.17539996 0.92652701 2.34010577 1.86663387 3.5 2.8125 C4.1496875 3.33457031 4.799375 3.85664062 5.46875 4.39453125 C7 6 7 6 7 9 C3.64564078 7.61198929 1.88709697 6.11371 0 3 C0 2.01 0 1.02 0 0 Z " fill="#202020" transform="translate(306,728)"/>
<path d="M0 0 C2.93200474 2.85276137 5.64315404 5.65079784 8 9 C4.68765616 7.83620352 2.1101781 6.88761214 0 4 C0 2.68 0 1.36 0 0 Z " fill="#D7D7D7" transform="translate(466,660)"/>
<path d="M0 0 C2.97851562 0.53710938 2.97851562 0.53710938 5.95703125 1.07421875 C5.62703125 2.06421875 5.29703125 3.05421875 4.95703125 4.07421875 C1.65703125 3.74421875 -1.64296875 3.41421875 -5.04296875 3.07421875 C-2.04296875 0.07421875 -2.04296875 0.07421875 0 0 Z " fill="#EFEFEF" transform="translate(711.04296875,583.92578125)"/>
<path d="M0 0 C2.72426311 2.35277269 3.8141763 4.62496331 5 8 C3.68 8 2.36 8 1 8 C-0.42944945 5.64561267 -1.08661261 4.51967567 -0.625 1.75 C-0.41875 1.1725 -0.2125 0.595 0 0 Z " fill="#D6D6D6" transform="translate(609,424)"/>
<path d="M0 0 C1.60031344 3.20062687 0.03173691 5.72271806 -1 9 C-2.32 9.33 -3.64 9.66 -5 10 C-3.66511872 6.40608886 -2.03977277 3.24509304 0 0 Z " fill="#DBDBDB" transform="translate(339,374)"/>
<path d="M0 0 C2.72426311 2.35277269 3.8141763 4.62496331 5 8 C3.68 8 2.36 8 1 8 C0.26919734 6.02253397 -0.39421747 4.01927511 -1 2 C-0.67 1.34 -0.34 0.68 0 0 Z " fill="#232323" transform="translate(621,376)"/>
<path d="M0 0 C2.61885488 2.36944013 4.41866551 4.83733102 6 8 C5.67 8.99 5.34 9.98 5 11 C1.19015156 8.22920113 0.93159248 4.37131855 0 0 Z " fill="#DBDBDB" transform="translate(506,252)"/>
<path d="M0 0 C5.75 1.75 5.75 1.75 8 4 C7.67 4.66 7.34 5.32 7 6 C3.62496331 4.8141763 1.35277269 3.72426311 -1 1 C-0.67 0.67 -0.34 0.34 0 0 Z " fill="#161616" transform="translate(324,786)"/>
<path d="M0 0 C0.33 0.99 0.66 1.98 1 3 C-1.52623786 5.52623786 -4.24530578 7.72438303 -7 10 C-7.66 9.67 -8.32 9.34 -9 9 C-6.03 6.03 -3.06 3.06 0 0 Z " fill="#151515" transform="translate(668,621)"/>
<path d="M0 0 C0.66 1.32 1.32 2.64 2 4 C-2.75 8.875 -2.75 8.875 -5 10 C-3.66511872 6.40608886 -2.03977277 3.24509304 0 0 Z " fill="#E1E1E1" transform="translate(333,384)"/>
<path d="M0 0 C1.125 1.75 1.125 1.75 2 4 C1.375 6.1875 1.375 6.1875 0 8 C-2.125 8.75 -2.125 8.75 -4 9 C-2.80100302 5.9168649 -1.52299523 2.93720508 0 0 Z " fill="#DBDBDB" transform="translate(469,352)"/>
<path d="M0 0 C4.0084034 2.0042017 5.41409657 3.49055963 8 7 C7.01 8.485 7.01 8.485 6 10 C4.02 6.7 2.04 3.4 0 0 Z " fill="#171717" transform="translate(479,206)"/>
<path d="M0 0 C3.3 0 6.6 0 10 0 C10 1.32 10 2.64 10 4 C6.7 3.01 3.4 2.02 0 1 C0 0.67 0 0.34 0 0 Z " fill="#CECECE" transform="translate(385,780)"/>
<path d="M0 0 C2.62187494 1.04874998 3.79371361 1.64931313 5.25 4.125 C5.4975 4.74375 5.745 5.3625 6 6 C5.01 6.33 4.02 6.66 3 7 C1.68 5.35 0.36 3.7 -1 2 C-0.67 1.34 -0.34 0.68 0 0 Z " fill="#D7D7D7" transform="translate(542,594)"/>
<path d="M0 0 C0.598125 0.226875 1.19625 0.45375 1.8125 0.6875 C0.31510417 1.92447917 -1.18229167 3.16145833 -2.6796875 4.3984375 C-3.89801161 5.44000992 -5.05410097 6.55410097 -6.1875 7.6875 C-5.82037028 4.97074005 -5.46005401 3.07686287 -3.875 0.8125 C-2.1875 -0.3125 -2.1875 -0.3125 0 0 Z " fill="#E3E3E3" transform="translate(476.1875,566.3125)"/>
<path d="M0 0 C1.13643966 3.40931897 0.86747764 4.00335456 -0.4375 7.1875 C-0.72496094 7.90292969 -1.01242187 8.61835937 -1.30859375 9.35546875 C-1.53675781 9.89816406 -1.76492188 10.44085937 -2 11 C-2.99 10.67 -3.98 10.34 -5 10 C-3.66511872 6.40608886 -2.03977277 3.24509304 0 0 Z " fill="#DFDFDF" transform="translate(373,513)"/>
<path d="M0 0 C0.66 0 1.32 0 2 0 C1.34 3.3 0.68 6.6 0 10 C-0.66 9.34 -1.32 8.68 -2 8 C-1.42307692 1.42307692 -1.42307692 1.42307692 0 0 Z " fill="#ECECEC" transform="translate(222,512)"/>
<path d="M0 0 C0.66 1.32 1.32 2.64 2 4 C-0.31 5.65 -2.62 7.3 -5 9 C-3.7508258 5.54074837 -2.32472205 2.85306797 0 0 Z " fill="#242424" transform="translate(341,499)"/>
<path d="M0 0 C2 3 2 3 1.625 5.6875 C1.41875 6.450625 1.2125 7.21375 1 8 C-0.32 8 -1.64 8 -3 8 C-1.125 2.25 -1.125 2.25 0 0 Z " fill="#D8D8D8" transform="translate(268,494)"/>
<path d="M0 0 C0 3.93154432 -1.25327015 6.5065403 -3 10 C-3.99 10.33 -4.98 10.66 -6 11 C-4.54955729 6.89041233 -2.48889248 3.56741255 0 0 Z " fill="#CDCDCD" transform="translate(281,471)"/>
<path d="M0 0 C0.99 0.33 1.98 0.66 3 1 C1.7508258 4.45925163 0.32472205 7.14693203 -2 10 C-1.125 2.25 -1.125 2.25 0 0 Z " fill="#E2E2E2" transform="translate(258,435)"/>
<path d="M0 0 C0.99 0.33 1.98 0.66 3 1 C1.35 3.64 -0.3 6.28 -2 9 C-3 5 -3 5 -2.125 2.8125 C-1 1 -1 1 0 0 Z " fill="#EAEAEA" transform="translate(411,377)"/>
<path d="M0 0 C0.33 0.66 0.66 1.32 1 2 C-0.65909182 6.10406925 -2.21704034 8.65195608 -6 11 C-4.54955729 6.89041233 -2.48889248 3.56741255 0 0 Z " fill="#373737" transform="translate(443,132)"/>
<path d="M0 0 C2.15377564 2.62198774 3.40072174 4.64404172 4 8 C2.68 7.67 1.36 7.34 0 7 C-1.125 2.25 -1.125 2.25 0 0 Z " fill="#E1E1E1" transform="translate(634,816)"/>
<path d="M0 0 C0.99 0.33 1.98 0.66 3 1 C1.84826645 3.46800047 0.95216435 5.04783565 -1 7 C-1.99 6.34 -2.98 5.68 -4 5 C-2.68 3.35 -1.36 1.7 0 0 Z " fill="#DFDFDF" transform="translate(435,712)"/>
<path d="M0 0 C0 3.5678289 -0.71052256 4.37134071 -3 7 C-3.99 7.66 -4.98 8.32 -6 9 C-6 6 -6 6 -3.5625 3.375 C-2.716875 2.59125 -1.87125 1.8075 -1 1 C-0.67 0.67 -0.34 0.34 0 0 Z " fill="#E8E8E8" transform="translate(668,671)"/>
<path d="M0 0 C0.66 1.32 1.32 2.64 2 4 C0.71034824 5.37562854 -0.62689293 6.70766393 -2 8 C-2.66 8 -3.32 8 -4 8 C-2.87548273 5.0280615 -1.77706209 2.66559313 0 0 Z " fill="#D6D6D6" transform="translate(309,424)"/>
<path d="M0 0 C0.33 0.66 0.66 1.32 1 2 C1.66 2.33 2.32 2.66 3 3 C-1.75 7.875 -1.75 7.875 -4 9 C-2.94124926 5.59687262 -1.99097846 2.98646769 0 0 Z " fill="#D9D9D9" transform="translate(443,396)"/>
<path d="M0 0 C0.66 0 1.32 0 2 0 C0.90931332 3.77545388 0.0916909 6.47043472 -3 9 C-3.25532751 5.93606987 -3.21861333 4.36766788 -1.625 1.6875 C-0.820625 0.8521875 -0.820625 0.8521875 0 0 Z " fill="#E7E7E7" transform="translate(289,385)"/>
<path d="M0 0 C0.33 1.32 0.66 2.64 1 4 C-0.3125 5.5 -0.3125 5.5 -2 7 C-3.17574711 9.09989652 -3.17574711 9.09989652 -4 11 C-4.66 10.67 -5.32 10.34 -6 10 C-4.02 6.7 -2.04 3.4 0 0 Z " fill="#CFCFCF" transform="translate(452,381)"/>
<path d="M0 0 C0.33 0 0.66 0 1 0 C0.67 2.31 0.34 4.62 0 7 C-1.32 7.33 -2.64 7.66 -4 8 C-2.25 2.25 -2.25 2.25 0 0 Z " fill="#DDDDDD" transform="translate(362,336)"/>
<path d="M0 0 C0.33 0 0.66 0 1 0 C1 2.64 1 5.28 1 8 C-0.65 8.33 -2.3 8.66 -4 9 C-2.80100302 5.9168649 -1.52299523 2.93720508 0 0 Z " fill="#DCDCDC" transform="translate(375,313)"/>
<path d="M0 0 C0.33 0.66 0.66 1.32 1 2 C1.66 2.33 2.32 2.66 3 3 C1.35 4.65 -0.3 6.3 -2 8 C-2.66 7.67 -3.32 7.34 -4 7 C-2.68 4.69 -1.36 2.38 0 0 Z " fill="#353535" transform="translate(353,282)"/>
<path d="M0 0 C1.32 0.66 2.64 1.32 4 2 C2.515 4.475 2.515 4.475 1 7 C0.34 6.34 -0.32 5.68 -1 5 C-0.625 2.375 -0.625 2.375 0 0 Z " fill="#EBEBEB" transform="translate(393,208)"/>
<path d="M0 0 C0.33 0.66 0.66 1.32 1 2 C1.66 2.33 2.32 2.66 3 3 C2.01 4.98 1.02 6.96 0 9 C-0.66 8.67 -1.32 8.34 -2 8 C-1.34 5.36 -0.68 2.72 0 0 Z " fill="#E8E8E8" transform="translate(426,153)"/>
<path d="M0 0 C1.98 1.65 3.96 3.3 6 5 C4.02 5.99 4.02 5.99 2 7 C0.4375 5.1875 0.4375 5.1875 -1 3 C-0.67 2.01 -0.34 1.02 0 0 Z " fill="#D6D6D6" transform="translate(282,753)"/>
<path d="M0 0 C0.99 0.99 1.98 1.98 3 3 C1.35 4.65 -0.3 6.3 -2 8 C-1.125 2.25 -1.125 2.25 0 0 Z " fill="#E2E2E2" transform="translate(547,736)"/>
<path d="M0 0 C0.33 0.99 0.66 1.98 1 3 C0.01 3.66 -0.98 4.32 -2 5 C-2.99 6.485 -2.99 6.485 -4 8 C-4.99 7.34 -5.98 6.68 -7 6 C-4.69 4.02 -2.38 2.04 0 0 Z " fill="#D7D7D7" transform="translate(607,732)"/>
<path d="M0 0 C0.99 0.33 1.98 0.66 3 1 C0.84365964 3.15634036 -1.37098712 4.47793991 -4 6 C-4.33 5.01 -4.66 4.02 -5 3 C-2.6875 1.4375 -2.6875 1.4375 0 0 Z " fill="#282828" transform="translate(667,728)"/>
<path d="M0 0 C-0.33 0.99 -0.66 1.98 -1 3 C-1.66 3 -2.32 3 -3 3 C-3.33 4.32 -3.66 5.64 -4 7 C-5.32 6.34 -6.64 5.68 -8 5 C-2.25 0 -2.25 0 0 0 Z " fill="#E0E0E0" transform="translate(616,725)"/>
<path d="M0 0 C2.64752004 2.57784846 4.94432065 4.91648098 7 8 C6.01 8.495 6.01 8.495 5 9 C1.9083091 6.47043472 1.09068668 3.77545388 0 0 Z " fill="#1E1E1E" transform="translate(298,719)"/>
<path d="M0 0 C0.66 0.33 1.32 0.66 2 1 C-2.75 5.875 -2.75 5.875 -5 7 C-5.66 6.34 -6.32 5.68 -7 5 C-4.69 3.35 -2.38 1.7 0 0 Z " fill="#CDCDCD" transform="translate(564,672)"/>
<path d="M0 0 C0.66 0.66 1.32 1.32 2 2 C1.625 4.625 1.625 4.625 1 7 C0.01 7.33 -0.98 7.66 -2 8 C-1.125 2.25 -1.125 2.25 0 0 Z " fill="#D4D4D4" transform="translate(586,640)"/>
<path d="M0 0 C0.33 0 0.66 0 1 0 C1.33 3.3 1.66 6.6 2 10 C1.01 9.67 0.02 9.34 -1 9 C-1.125 2.25 -1.125 2.25 0 0 Z " fill="#E8E8E8" transform="translate(315,600)"/>
<path d="M0 0 C3.3 0 6.6 0 10 0 C9.67 1.32 9.34 2.64 9 4 C6.03 3.01 3.06 2.02 0 1 C0 0.67 0 0.34 0 0 Z " fill="#CDCDCD" transform="translate(545,555)"/>
<path d="M0 0 C0.99 0.33 1.98 0.66 3 1 C1.92598892 3.91517292 1.22189824 5.77810176 -1 8 C-2.2077558 4.37673261 -1.54311128 3.35853631 0 0 Z " fill="#141414" transform="translate(410,445)"/>
<path d="M0 0 C2.72426311 2.35277269 3.8141763 4.62496331 5 8 C3.125 7.75 3.125 7.75 1 7 C-0.3125 5.125 -0.3125 5.125 -1 3 C-0.67 2.01 -0.34 1.02 0 0 Z " fill="#252525" transform="translate(597,336)"/>
<path d="M0 0 C2.0625 2.3125 2.0625 2.3125 4 5 C3.67 5.99 3.34 6.98 3 8 C1.68 7.01 0.36 6.02 -1 5 C-0.67 3.35 -0.34 1.7 0 0 Z " fill="#D9D9D9" transform="translate(556,335)"/>
<path d="M0 0 C0.33 0.99 0.66 1.98 1 3 C-0.65 4.32 -2.3 5.64 -4 7 C-4 3 -4 3 -2 1 C-1.34 1.33 -0.68 1.66 0 2 C0 1.34 0 0.68 0 0 Z " fill="#151515" transform="translate(346,298)"/>
<path d="M0 0 C0.66 0.33 1.32 0.66 2 1 C2.125 3.875 2.125 3.875 2 7 C1.34 7.66 0.68 8.32 0 9 C-1.125 6.75 -1.125 6.75 -2 4 C-1.125 1.6875 -1.125 1.6875 0 0 Z " fill="#0E0E0E" transform="translate(533,288)"/>
<path d="M0 0 C2.72426311 2.35277269 3.8141763 4.62496331 5 8 C0.22753346 5.55258126 0.22753346 5.55258126 -0.875 2.875 C-0.91625 2.25625 -0.9575 1.6375 -1 1 C-0.67 0.67 -0.34 0.34 0 0 Z " fill="#D0D0D0" transform="translate(481,210)"/>
<path d="M0 0 C2.4375 0.75 2.4375 0.75 5 2 C5.9375 4 5.9375 4 6 6 C5.34 6.66 4.68 7.32 4 8 C2.68 5.36 1.36 2.72 0 0 Z " fill="#E6E6E6" transform="translate(501,174)"/>
<path d="M0 0 C0.66 1.32 1.32 2.64 2 4 C0.35 5.32 -1.3 6.64 -3 8 C-3.66 7.67 -4.32 7.34 -5 7 C-3.35 4.69 -1.7 2.38 0 0 Z " fill="#D5D5D5" transform="translate(756,825)"/>
<path d="M0 0 C4.875 4.75 4.875 4.75 6 7 C5.34 7.66 4.68 8.32 4 9 C4 8.34 4 7.68 4 7 C3.34 6.67 2.68 6.34 2 6 C2.33 5.34 2.66 4.68 3 4 C2.01 3.67 1.02 3.34 0 3 C0 2.01 0 1.02 0 0 Z " fill="#D1D1D1" transform="translate(352,681)"/>
<path d="M0 0 C0.99 0.66 1.98 1.32 3 2 C0.03 4.475 0.03 4.475 -3 7 C-3 4 -3 4 -2 2 C-1.34 2 -0.68 2 0 2 C0 1.34 0 0.68 0 0 Z " fill="#DADADA" transform="translate(612,673)"/>
<path d="M0 0 C0.99 1.32 1.98 2.64 3 4 C2.34 5.32 1.68 6.64 1 8 C-1 5 -1 5 -0.625 2.3125 C-0.41875 1.549375 -0.2125 0.78625 0 0 Z " fill="#E0E0E0" transform="translate(458,646)"/>
<path d="M0 0 C0.99 0.66 1.98 1.32 3 2 C0.03 4.475 0.03 4.475 -3 7 C-3 4 -3 4 -2 2 C-1.34 2 -0.68 2 0 2 C0 1.34 0 0.68 0 0 Z " fill="#DBDBDB" transform="translate(684,601)"/>
<path d="M0 0 C1.65 0 3.3 0 5 0 C5 2.64 5 5.28 5 8 C3.24901874 5.37352812 1.61268692 2.71224618 0 0 Z " fill="#DEDEDE" transform="translate(722,592)"/>
<path d="M0 0 C0.66 0.33 1.32 0.66 2 1 C1.319375 1.61875 1.319375 1.61875 0.625 2.25 C-1.05950374 4.06408095 -1.99265971 5.75285627 -3 8 C-5 7 -5 7 -6 5 C-4.02 3.35 -2.04 1.7 0 0 Z " fill="#232323" transform="translate(480,564)"/>
<path d="M0 0 C0.99 0.33 1.98 0.66 3 1 C2.67 1.99 2.34 2.98 2 4 C1.01 4 0.02 4 -1 4 C-1.33 4.99 -1.66 5.98 -2 7 C-2 3 -2 3 0 0 Z " fill="#1E1E1E" transform="translate(405,392)"/>
<path d="M0 0 C0.66 0.33 1.32 0.66 2 1 C0.68 3.31 -0.64 5.62 -2 8 C-2.66 7.34 -3.32 6.68 -4 6 C-4 5.01 -4 4.02 -4 3 C-3.01 2.67 -2.02 2.34 -1 2 C-0.67 1.34 -0.34 0.68 0 0 Z " fill="#EAEAEA" transform="translate(441,328)"/>
<path d="M0 0 C0.6875 1.625 0.6875 1.625 1 4 C-0.4375 7.25 -0.4375 7.25 -2 10 C-2.66 9.67 -3.32 9.34 -4 9 C-2.80100302 5.9168649 -1.52299523 2.93720508 0 0 Z " fill="#CACACA" transform="translate(406,261)"/>
<path d="M0 0 C1.0625 1.8125 1.0625 1.8125 2 4 C1.67 4.99 1.34 5.98 1 7 C-0.32 7 -1.64 7 -3 7 C-1.125 2.25 -1.125 2.25 0 0 Z " fill="#181818" transform="translate(370,254)"/>
<path d="M0 0 C2.72426311 2.35277269 3.8141763 4.62496331 5 8 C4.01 8.495 4.01 8.495 3 9 C1.5 7.875 1.5 7.875 0 6 C-0.1875 2.8125 -0.1875 2.8125 0 0 Z " fill="#DEDEDE" transform="translate(494,232)"/>
<path d="M0 0 C0.33 0 0.66 0 1 0 C0.75 3.375 0.75 3.375 0 7 C-2.0625 8.4375 -2.0625 8.4375 -4 9 C-2.80100302 5.9168649 -1.52299523 2.93720508 0 0 Z " fill="#D2D2D2" transform="translate(436,211)"/>
<path d="M0 0 C0.66 0.66 1.32 1.32 2 2 C-0.31 3.65 -2.62 5.3 -5 7 C-5 4 -5 4 -3 2 C-2.01 2 -1.02 2 0 2 C0 1.34 0 0.68 0 0 Z " fill="#1B1B1B" transform="translate(678,760)"/>
<path d="M0 0 C1.65 1.65 3.3 3.3 5 5 C4.67 5.66 4.34 6.32 4 7 C2.68 6.67 1.36 6.34 0 6 C0 4.02 0 2.04 0 0 Z " fill="#252525" transform="translate(752,749)"/>
<path d="M0 0 C1.65 1.65 3.3 3.3 5 5 C3.68 5 2.36 5 1 5 C0.34 4.01 -0.32 3.02 -1 2 C-0.67 1.34 -0.34 0.68 0 0 Z " fill="#E2E2E2" transform="translate(324,741)"/>
<path d="M0 0 C0.598125 0.350625 1.19625 0.70125 1.8125 1.0625 C1.8125 2.0525 1.8125 3.0425 1.8125 4.0625 C-0.20795442 3.46066251 -2.20861039 2.78943904 -4.1875 2.0625 C-4.5175 1.4025 -4.8475 0.7425 -5.1875 0.0625 C-2.1875 -0.9375 -2.1875 -0.9375 0 0 Z " fill="#2B2B2B" transform="translate(672.1875,530.9375)"/>
<path d="M0 0 C0.66 0.33 1.32 0.66 2 1 C2.625 3.5625 2.625 3.5625 3 6 C2.34 6 1.68 6 1 6 C0.67 6.66 0.34 7.32 0 8 C-1.125 2.25 -1.125 2.25 0 0 Z " fill="#E8E8E8" transform="translate(692,498)"/>
<path d="M0 0 C1 4 1 4 0 7 C-1.32 7.33 -2.64 7.66 -4 8 C-2.68 5.36 -1.36 2.72 0 0 Z " fill="#D8D8D8" transform="translate(394,478)"/>
<path d="M0 0 C2 3.75 2 3.75 2 6 C1.38125 6.144375 0.7625 6.28875 0.125 6.4375 C-2.03258322 6.93152225 -2.03258322 6.93152225 -4 8 C-2.66666667 5.33333333 -1.33333333 2.66666667 0 0 Z " fill="#BFBFBF" transform="translate(402,464)"/>
<path d="M0 0 C2.475 0.495 2.475 0.495 5 1 C4.67 2.65 4.34 4.3 4 6 C0 1.125 0 1.125 0 0 Z " fill="#DEDEDE" transform="translate(497,168)"/>
</svg>
